<mxfile host="app.diagrams.net" modified="2024-05-06T19:03:02.142Z" agent="Mozilla/5.0 (Windows NT 10.0; Win64; x64) AppleWebKit/537.36 (KHTML, like Gecko) Chrome/124.0.0.0 Safari/537.36" version="24.3.1" etag="ClSIQGdj00cNtUuG1IZS" type="github">
  <diagram name="Halaman-1" id="kA-RmY3ARUI6P2VSfrNQ">
    <mxGraphModel>
      <root>
        <mxCell id="0" />
        <mxCell id="1" parent="0" />
      </root>
    </mxGraphModel>
  </diagram>
</mxfile>
